# xmcd
#
# Track frame offsets: 
#        150
#        28513
#        54923
#        77693
#        110943
#        137628
#        158985
#        180033
#        202930
#        227303
#        248215
#        274945
#
# Disc length: 3749 seconds
#
# Revision: 1
# Processed by: cddbd v1.5.2PL0 Copyright (c) Steve Scherf et al.
# Submitted via: ExactAudioCopy v0.99pb5
#
DISCID=920ea30c
DTITLE=Kim Anh - Mua Thu La Bay
DYEAR=1982
DGENRE=Soul
TTITLE0=Mua Thu La Bay
TTITLE1=Tinh Khuc Chieu Mua
TTITLE2=Diem Xua
TTITLE3=Bai Khong Ten So 2
TTITLE4=Xin Con Goi Ten Nhau
TTITLE5=Le Da
TTITLE6=Bai Khong Ten Cuoi Cung
TTITLE7=Nua Dem Ngoai Pho
TTITLE8=Vet Thuong Cuoi Cung
TTITLE9=Sang Ngang
TTITLE10=Sau Le Bong
TTITLE11=Loi Ket
EXTD=
EXTT0=
EXTT1=
EXTT2=
EXTT3=
EXTT4=
EXTT5=
EXTT6=
EXTT7=
EXTT8=
EXTT9=
EXTT10=
EXTT11=
PLAYORDER=
